<svg width="100" height="76" viewBox="0 0 100 76" fill="none" xmlns="http://www.w3.org/2000/svg">
<path d="M90.625 0.5C95.8008 0.5 100 4.69727 100 9.875V22.375C100 27.5508 95.8008 31.75 90.625 31.75H9.375C4.19727 31.75 0 27.5508 0 22.375V9.875C0 4.69727 4.19727 0.5 9.375 0.5H90.625ZM87.5 13H62.5V19.25H87.5V13ZM90.625 44.25C95.8008 44.25 100 48.4492 100 53.625V66.125C100 71.3008 95.8008 75.5 90.625 75.5H9.375C4.19727 75.5 0 71.3008 0 66.125V53.625C0 48.4492 4.19727 44.25 9.375 44.25H90.625ZM37.5 56.75V63H87.5V56.75H37.5Z" fill="#FC4F4F"/>
</svg>
