<svg width="88" height="88" viewBox="0 0 88 88" fill="none" xmlns="http://www.w3.org/2000/svg">
<path d="M12.75 12.75C12.75 9.43479 14.067 6.25537 16.4112 3.91117C18.7554 1.56696 21.9348 0.25 25.25 0.25C28.5652 0.25 31.7446 1.56696 34.0888 3.91117C36.433 6.25537 37.75 9.43479 37.75 12.75C37.75 16.0652 36.433 19.2446 34.0888 21.5888C31.7446 23.933 28.5652 25.25 25.25 25.25C21.9348 25.25 18.7554 23.933 16.4112 21.5888C14.067 19.2446 12.75 16.0652 12.75 12.75ZM55.1188 22.65L55.3813 22.85C58.0331 24.8157 61.3548 25.6526 64.6214 25.1782C67.8881 24.7038 70.8344 22.9565 72.8176 20.3177C74.8007 17.6789 75.6595 14.3628 75.2067 11.0931C74.7538 7.82342 73.0261 4.86557 70.4004 2.86507C67.7748 0.864577 64.4644 -0.0161464 61.1918 0.415107C57.9192 0.846361 54.95 2.55458 52.9322 5.16697C50.9144 7.77936 50.0119 11.0838 50.4215 14.3592C50.8312 17.6346 52.5197 20.615 55.1188 22.65ZM33.175 31.5C33.96 30.0135 35.0368 28.7007 36.3409 27.6399C37.645 26.5792 39.1497 25.7924 40.7649 25.3267C42.3801 24.8609 44.0727 24.7257 45.7414 24.9292C47.41 25.1327 49.0205 25.6706 50.4765 26.5109C51.9324 27.3512 53.204 28.4765 54.215 29.8195C55.226 31.1625 55.9557 32.6957 56.3605 34.3272C56.7653 35.9588 56.8368 37.6553 56.5709 39.3151C56.3049 40.975 55.7068 42.5641 54.8125 43.9875C53.092 46.7258 50.3772 48.6907 47.2384 49.4695C44.0996 50.2482 40.7811 49.7802 37.9802 48.1637C35.1792 46.5472 33.1138 43.908 32.2177 40.8007C31.3217 37.6934 31.6648 34.3597 33.175 31.5ZM9.625 31.5H26.3125C25.2017 34.6722 24.9602 38.084 25.613 41.381C26.2658 44.6781 27.7892 47.7404 30.025 50.25H28.375C25.1527 50.2495 22.0091 51.2449 19.3743 53.0999C16.7395 54.9549 14.7424 57.5788 13.6562 60.6125C11.5583 59.7698 9.59405 58.6266 7.825 57.2188C3.125 53.4375 0.25 47.85 0.25 40.875C0.25 38.3886 1.23772 36.004 2.99587 34.2459C4.75403 32.4877 7.1386 31.5 9.625 31.5ZM59.625 50.25C62.8464 50.2499 65.9891 51.2455 68.6228 53.1006C71.2565 54.9556 73.2525 57.5793 74.3375 60.6125C76.4625 59.7438 78.4313 58.6125 80.175 57.2188C84.875 53.4375 87.75 47.85 87.75 40.875C87.75 38.3886 86.7623 36.004 85.0041 34.2459C83.246 32.4877 80.8614 31.5 78.375 31.5H61.6875C62.375 33.4562 62.75 35.5625 62.75 37.75C62.7558 42.3632 61.055 46.8155 57.975 50.25H59.625ZM68.2937 62.3C68.75 63.4 69 64.6125 69 65.875C69 72.85 66.1312 78.4375 61.425 82.2188C56.7938 85.9375 50.5812 87.75 44 87.75C37.4188 87.75 31.2062 85.9375 26.575 82.2188C21.875 78.4375 19 72.85 19 65.875C18.9967 64.6429 19.2369 63.4224 19.7069 62.2834C20.1769 61.1445 20.8673 60.1097 21.7385 59.2385C22.6097 58.3673 23.6445 57.6769 24.7834 57.2069C25.9224 56.7369 27.1429 56.4967 28.375 56.5H59.625C61.4819 56.4996 63.2971 57.0506 64.8404 58.0832C66.3837 59.1158 67.5857 60.5834 68.2937 62.3Z" fill="#FC4F4F"/>
</svg>
