<svg width="100" height="100" viewBox="0 0 100 100" fill="none" xmlns="http://www.w3.org/2000/svg">
<path d="M69.2308 42.3077C69.2308 34.8958 66.5965 28.5557 61.3281 23.2873C56.0597 18.0188 49.7196 15.3846 42.3077 15.3846C34.8958 15.3846 28.5557 18.0188 23.2873 23.2873C18.0188 28.5557 15.3846 34.8958 15.3846 42.3077C15.3846 49.7196 18.0188 56.0597 23.2873 61.3281C28.5557 66.5965 34.8958 69.2308 42.3077 69.2308C49.7196 69.2308 56.0597 66.5965 61.3281 61.3281C66.5965 56.0597 69.2308 49.7196 69.2308 42.3077ZM100 92.3077C100 94.391 99.2388 96.1939 97.7163 97.7163C96.1939 99.2388 94.391 100 92.3077 100C90.1442 100 88.3413 99.2388 86.899 97.7163L66.2861 77.1635C59.1146 82.1314 51.1218 84.6154 42.3077 84.6154C36.5785 84.6154 31.0998 83.5036 25.8714 81.28C20.643 79.0565 16.1358 76.0517 12.3498 72.2656C8.5637 68.4796 5.55889 63.9724 3.33534 58.744C1.11178 53.5156 0 48.0369 0 42.3077C0 36.5785 1.11178 31.0998 3.33534 25.8714C5.55889 20.643 8.5637 16.1358 12.3498 12.3498C16.1358 8.5637 20.643 5.55889 25.8714 3.33534C31.0998 1.11178 36.5785 0 42.3077 0C48.0369 0 53.5156 1.11178 58.744 3.33534C63.9724 5.55889 68.4796 8.5637 72.2656 12.3498C76.0517 16.1358 79.0565 20.643 81.28 25.8714C83.5036 31.0998 84.6154 36.5785 84.6154 42.3077C84.6154 51.1218 82.1314 59.1146 77.1635 66.2861L97.7764 86.899C99.2588 88.3814 100 90.1843 100 92.3077Z" fill="#FC4F4F"/>
</svg>
