<svg width="30" height="32" viewBox="0 0 30 32" fill="none" xmlns="http://www.w3.org/2000/svg">
<path fill-rule="evenodd" clip-rule="evenodd" d="M15 0C6.7125 0 0 7.1913 0 16.0699C0 23.1809 4.29375 29.187 10.2562 31.3163C11.0062 31.4569 11.2875 30.9748 11.2875 30.553C11.2875 30.1713 11.2688 28.9058 11.2688 27.56C7.5 28.3032 6.525 26.5757 6.225 25.6717C6.05625 25.2097 5.325 23.7835 4.6875 23.4019C4.1625 23.1005 3.4125 22.3573 4.66875 22.3372C5.85 22.3171 6.69375 23.5023 6.975 23.9844C8.325 26.415 10.4812 25.732 11.3437 25.3102C11.475 24.2656 11.8688 23.5626 12.3 23.1608C8.9625 22.7591 5.475 21.373 5.475 15.2263C5.475 13.4787 6.05625 12.0324 7.0125 10.9075C6.8625 10.5057 6.3375 8.85856 7.1625 6.64894C7.1625 6.64894 8.41875 6.2271 11.2875 8.29611C12.4875 7.93454 13.7625 7.75375 15.0375 7.75375C16.3125 7.75375 17.5875 7.93454 18.7875 8.29611C21.6562 6.20702 22.9125 6.64894 22.9125 6.64894C23.7375 8.85856 23.2125 10.5057 23.0625 10.9075C24.0188 12.0324 24.6 13.4586 24.6 15.2263C24.6 21.3931 21.0938 22.7591 17.7562 23.1608C18.3 23.663 18.7688 24.6272 18.7688 26.1337C18.7688 28.2831 18.75 30.0106 18.75 30.553C18.75 30.9748 19.0312 31.477 19.7812 31.3163C22.759 30.2392 25.3465 28.1889 27.1796 25.4539C29.0127 22.719 29.9991 19.437 30 16.0699C30 7.1913 23.2875 0 15 0Z" fill="white" fill-opacity="0.7"/>
</svg>
