<svg width="156" height="41" viewBox="0 0 156 41" fill="none" xmlns="http://www.w3.org/2000/svg">
            <path d="M8.65 40.35C6.81667 40.35 5.55 39.9833 4.85 39.25C4.15 38.55 3.78333 37.6333 3.75 36.5C3.75 35.5333 3.93333 34.3833 4.3 33.05C4.7 31.6833 5.1 30.3833 5.5 29.15C6.3 26.7833 7.13333 24.45 8 22.15C8.86667 19.85 9.73333 17.6333 10.6 15.5C11.5 13.3667 12.35 11.3333 13.15 9.4C13.9833 7.46667 14.75 5.68333 15.45 4.05C13.1833 4.08333 11.2167 4.15 9.55 4.25C7.91667 4.35 6.41667 4.48333 5.05 4.65C3.68333 4.78333 2.26667 4.98333 0.8 5.25C0.966667 3.85 1.61667 2.78333 2.75 2.05C3.91667 1.28333 5.46667 0.749999 7.4 0.449999C9.33333 0.149999 11.55 -1.43051e-06 14.05 -1.43051e-06C15.35 -1.43051e-06 16.5667 0.0333315 17.7 0.0999973C18.8667 0.133332 19.9667 0.199999 21 0.299998C22.0667 0.399998 23.1 0.499999 24.1 0.6C26.2 0.799999 27.8667 0.933332 29.1 0.999998C30.3667 1.06667 31.2667 1.1 31.8 1.1C30.8 2.03333 29.5333 2.71667 28 3.15C26.5 3.55 24.9167 3.8 23.25 3.9C21.5833 4 20 4.05 18.5 4.05C16.9 7.98333 15.4333 12.0667 14.1 16.3C12.7667 20.5333 11.5333 24.7167 10.4 28.85C9.96667 30.45 9.6 31.8167 9.3 32.95C9.03333 34.05 8.83333 35.0667 8.7 36C8.56667 36.9 8.5 37.8667 8.5 38.9C8.5 39.0667 8.5 39.25 8.5 39.45C8.53333 39.6833 8.58333 39.9833 8.65 40.35ZM21.5773 38.35C20.4773 38.35 19.5273 37.9833 18.7273 37.25C17.894 36.5167 17.4773 35.4167 17.4773 33.95C17.4773 32.7833 17.744 31.5167 18.2773 30.15C18.8107 28.7833 19.544 27.4333 20.4773 26.1C21.4107 24.7667 22.4773 23.5667 23.6773 22.5C24.8773 21.4 26.1607 20.5167 27.5273 19.85C28.894 19.1833 30.2607 18.85 31.6273 18.85C33.0607 18.85 34.2773 19.2167 35.2773 19.95C36.2773 20.6833 36.7773 21.65 36.7773 22.85C36.7773 23.75 36.4607 24.4 35.8273 24.8C35.194 25.2 34.444 25.3167 33.5773 25.15C33.644 24.85 33.694 24.55 33.7273 24.25C33.794 23.95 33.8273 23.6333 33.8273 23.3C33.8273 22.6333 33.694 22.0333 33.4273 21.5C33.1607 20.9667 32.594 20.7 31.7273 20.7C30.794 20.7 29.844 21.0167 28.8773 21.65C27.9107 22.2833 26.9773 23.1167 26.0773 24.15C25.2107 25.15 24.4273 26.2667 23.7273 27.5C23.0273 28.7 22.4773 29.8833 22.0773 31.05C21.6773 32.2167 21.4773 33.2667 21.4773 34.2C21.4773 35.2667 21.8607 35.8 22.6273 35.8C23.394 35.8 24.244 35.4333 25.1773 34.7C26.1107 33.9333 27.044 32.9833 27.9773 31.85C28.944 30.7167 29.8607 29.5667 30.7273 28.4C31.594 27.2 32.344 26.1833 32.9773 25.35C33.0773 25.1833 33.2107 25.1 33.3773 25.1C33.5107 25.1333 33.7607 25.2167 34.1273 25.35C34.5273 25.45 34.894 25.6167 35.2273 25.85C35.5607 26.0833 35.7273 26.3833 35.7273 26.75C35.7273 27.0833 35.5773 27.5167 35.2773 28.05C35.0107 28.55 34.6773 29.1167 34.2773 29.75C33.9107 30.35 33.5773 30.9667 33.2773 31.6C33.0107 32.2 32.8773 32.7833 32.8773 33.35C32.8773 33.7833 32.994 34.2 33.2273 34.6C33.4607 34.9667 33.844 35.15 34.3773 35.15C35.1773 35.15 36.294 34.5667 37.7273 33.4C39.194 32.2 40.6773 30.1833 42.1773 27.35L43.1273 28.3C42.3273 30.1 41.3607 31.7 40.2273 33.1C39.1273 34.4667 37.9607 35.5333 36.7273 36.3C35.494 37.1 34.244 37.5 32.9773 37.5C31.6107 37.5 30.594 37.0667 29.9273 36.2C29.2607 35.3333 28.894 34.4 28.8273 33.4C28.8273 33.3333 28.8273 33.2833 28.8273 33.25C28.8273 33.2167 28.8273 33.1833 28.8273 33.15C27.494 34.75 26.2607 36.0167 25.1273 36.95C24.0273 37.8833 22.844 38.35 21.5773 38.35ZM45.2941 37.5C43.7275 37.5 42.6275 36.9833 41.9941 35.95C41.3941 34.8833 41.0941 33.6333 41.0941 32.2C41.0941 30.5667 41.3941 28.65 41.9941 26.45C42.5941 24.25 43.3775 21.95 44.3441 19.55C45.3441 17.1167 46.4275 14.75 47.5941 12.45C48.7941 10.1167 49.9941 8.01667 51.1941 6.15C52.3941 4.28333 53.4941 2.8 54.4941 1.7C55.5275 0.566665 56.3608 -1.43051e-06 56.9941 -1.43051e-06C57.4275 -1.43051e-06 57.7941 0.233332 58.0941 0.699998C58.3941 1.13333 58.6275 1.66667 58.7941 2.3C58.9941 2.9 59.0941 3.46667 59.0941 4C59.0941 4.9 58.8608 6.08333 58.3941 7.55C57.9608 8.98333 57.3275 10.5667 56.4941 12.3C55.6941 14.0333 54.7275 15.8167 53.5941 17.65C52.4941 19.45 51.2608 21.1667 49.8941 22.8C48.5608 24.4333 47.1275 25.85 45.5941 27.05C45.4608 27.8833 45.3275 28.7167 45.1941 29.55C45.0941 30.35 45.0441 31.0833 45.0441 31.75C45.0441 32.95 45.2441 33.8333 45.6441 34.4C46.0441 34.9333 46.5608 35.2 47.1941 35.2C48.0275 35.2 48.8775 34.8167 49.7441 34.05C50.6441 33.25 51.4941 32.25 52.2941 31.05C53.1275 29.8167 53.8441 28.55 54.4441 27.25L55.6441 27.9C54.2108 30.8667 52.6108 33.2167 50.8441 34.95C49.0775 36.65 47.2275 37.5 45.2941 37.5ZM46.4941 23.95C47.6275 22.7167 48.6941 21.3833 49.6941 19.95C50.7275 18.4833 51.6608 17 52.4941 15.5C53.3608 14 54.1108 12.55 54.7441 11.15C55.3775 9.75 55.8608 8.5 56.1941 7.4C56.5608 6.26667 56.7608 5.36667 56.7941 4.7C56.7941 4.66666 56.7941 4.65 56.7941 4.65C56.7941 4.61667 56.7941 4.58333 56.7941 4.55C56.5275 4.55 56.0941 4.93333 55.4941 5.7C54.9275 6.43333 54.2441 7.45 53.4441 8.75C52.6441 10.05 51.8108 11.5333 50.9441 13.2C50.1108 14.8667 49.2941 16.6333 48.4941 18.5C47.7275 20.3333 47.0608 22.15 46.4941 23.95ZM59.05 38.2C56.9167 38.2 55.2667 37.6167 54.1 36.45C52.9667 35.3167 52.4 33.8833 52.4 32.15C52.4 30.6833 52.7667 29.1333 53.5 27.5C54.2667 25.8333 55.2833 24.2833 56.55 22.85C57.8167 21.3833 59.2167 20.2 60.75 19.3C62.2833 18.4 63.8167 17.95 65.35 17.95C66.2167 17.95 67.0333 18.1833 67.8 18.65C68.6 19.0833 69 19.9667 69 21.3C69 22.5667 68.6333 23.75 67.9 24.85C67.1667 25.95 66.1833 26.9333 64.95 27.8C63.7167 28.6667 62.35 29.3833 60.85 29.95C59.3833 30.4833 57.9 30.8333 56.4 31C56.3667 31.1333 56.3333 31.2833 56.3 31.45C56.3 31.5833 56.3 31.8167 56.3 32.15C56.3 32.3167 56.3167 32.6167 56.35 33.05C56.4167 33.45 56.5667 33.8833 56.8 34.35C57.0333 34.8167 57.4167 35.2167 57.95 35.55C58.4833 35.8833 59.2167 36.05 60.15 36.05C61.55 36.05 62.95 35.6667 64.35 34.9C65.7833 34.1 67.1167 33.05 68.35 31.75C69.6167 30.45 70.6667 29 71.5 27.4L72.5 28.2C71.6 30.2 70.4333 31.95 69 33.45C67.6 34.95 66.0333 36.1167 64.3 36.95C62.6 37.7833 60.85 38.2 59.05 38.2ZM56.95 29.15C57.8167 29.05 58.7833 28.75 59.85 28.25C60.9167 27.75 61.9333 27.1167 62.9 26.35C63.9 25.5833 64.7167 24.75 65.35 23.85C65.9833 22.9167 66.3 21.9833 66.3 21.05C66.3 20.6833 66.2333 20.4333 66.1 20.3C65.9667 20.1667 65.75 20.1 65.45 20.1C64.6833 20.1 63.8833 20.3833 63.05 20.95C62.2167 21.4833 61.4 22.2 60.6 23.1C59.8 23.9667 59.0833 24.9333 58.45 26C57.8167 27.0667 57.3167 28.1167 56.95 29.15ZM76.141 38.55C74.4743 38.55 73.1243 38.2 72.091 37.5C71.091 36.8333 70.3743 35.9833 69.941 34.95C69.5077 33.8833 69.291 32.8 69.291 31.7C69.291 30.7333 69.4243 29.9833 69.691 29.45C69.9577 28.9167 70.291 28.5333 70.691 28.3C71.091 28.0333 71.4577 27.8333 71.791 27.7C72.1577 27.5667 72.4243 27.4167 72.591 27.25C73.4243 26.3833 74.2743 25.3833 75.141 24.25C76.041 23.0833 76.8077 21.8 77.441 20.4V19.9C77.441 18.5667 77.6577 17.6333 78.091 17.1C78.5577 16.5333 79.091 16.25 79.691 16.25C80.091 16.25 80.3743 16.35 80.541 16.55C80.741 16.75 80.8577 16.9833 80.891 17.25C80.891 17.45 80.841 17.6833 80.741 17.95C80.6743 18.2167 80.641 18.5833 80.641 19.05C80.641 20.05 80.8743 21.2 81.341 22.5C81.841 23.7667 82.3243 25.1167 82.791 26.55C83.291 27.9833 83.541 29.45 83.541 30.95C83.541 31.35 83.5243 31.7167 83.491 32.05C83.4577 32.3833 83.4077 32.7 83.341 33C84.3743 32.7333 85.391 32.1667 86.391 31.3C87.391 30.4 88.341 29.0833 89.241 27.35L89.841 27.8C89.2077 29.7 88.291 31.2333 87.091 32.4C85.891 33.5333 84.491 34.2333 82.891 34.5C82.3577 35.8667 81.4743 36.8833 80.241 37.55C79.041 38.2167 77.6743 38.55 76.141 38.55ZM75.791 36.35C76.4577 36.35 77.0743 36.1833 77.641 35.85C78.2077 35.5167 78.6577 35.0333 78.991 34.4C77.6243 34.1 76.391 33.5667 75.291 32.8C74.191 32.0333 73.341 31.25 72.741 30.45C72.2743 30.55 72.041 31 72.041 31.8C72.041 32.9 72.3577 33.9333 72.991 34.9C73.6243 35.8667 74.5577 36.35 75.791 36.35ZM79.391 32.9C79.4577 32.6667 79.491 32.4 79.491 32.1C79.5243 31.7667 79.541 31.5167 79.541 31.35C79.5077 29.85 79.3077 28.3667 78.941 26.9C78.5743 25.4333 78.2077 23.9333 77.841 22.4C77.241 23.4333 76.541 24.55 75.741 25.75C74.941 26.95 74.191 27.9167 73.491 28.65C74.0243 29.55 74.8077 30.4 75.841 31.2C76.8743 32 78.0577 32.5667 79.391 32.9ZM99.4703 40.35C97.637 40.35 96.3703 39.9833 95.6703 39.25C94.9703 38.55 94.6036 37.6333 94.5703 36.5C94.5703 35.5333 94.7536 34.3833 95.1203 33.05C95.5203 31.6833 95.9203 30.3833 96.3203 29.15C97.1203 26.7833 97.9536 24.45 98.8203 22.15C99.687 19.85 100.554 17.6333 101.42 15.5C102.32 13.3667 103.17 11.3333 103.97 9.4C104.804 7.46667 105.57 5.68333 106.27 4.05C104.004 4.08333 102.037 4.15 100.37 4.25C98.737 4.35 97.237 4.48333 95.8703 4.65C94.5036 4.78333 93.087 4.98333 91.6203 5.25C91.787 3.85 92.437 2.78333 93.5703 2.05C94.737 1.28333 96.287 0.749999 98.2203 0.449999C100.154 0.149999 102.37 -1.43051e-06 104.87 -1.43051e-06C106.17 -1.43051e-06 107.387 0.0333315 108.52 0.0999973C109.687 0.133332 110.787 0.199999 111.82 0.299998C112.887 0.399998 113.92 0.499999 114.92 0.6C117.02 0.799999 118.687 0.933332 119.92 0.999998C121.187 1.06667 122.087 1.1 122.62 1.1C121.62 2.03333 120.354 2.71667 118.82 3.15C117.32 3.55 115.737 3.8 114.07 3.9C112.404 4 110.82 4.05 109.32 4.05C107.72 7.98333 106.254 12.0667 104.92 16.3C103.587 20.5333 102.354 24.7167 101.22 28.85C100.787 30.45 100.42 31.8167 100.12 32.95C99.8536 34.05 99.6536 35.0667 99.5203 36C99.387 36.9 99.3203 37.8667 99.3203 38.9C99.3203 39.0667 99.3203 39.25 99.3203 39.45C99.3536 39.6833 99.4036 39.9833 99.4703 40.35ZM115.495 38.2C113.362 38.2 111.712 37.6167 110.545 36.45C109.412 35.3167 108.845 33.8833 108.845 32.15C108.845 30.6833 109.212 29.1333 109.945 27.5C110.712 25.8333 111.729 24.2833 112.995 22.85C114.262 21.3833 115.662 20.2 117.195 19.3C118.729 18.4 120.262 17.95 121.795 17.95C122.662 17.95 123.479 18.1833 124.245 18.65C125.045 19.0833 125.445 19.9667 125.445 21.3C125.445 22.5667 125.079 23.75 124.345 24.85C123.612 25.95 122.629 26.9333 121.395 27.8C120.162 28.6667 118.795 29.3833 117.295 29.95C115.829 30.4833 114.345 30.8333 112.845 31C112.812 31.1333 112.779 31.2833 112.745 31.45C112.745 31.5833 112.745 31.8167 112.745 32.15C112.745 32.3167 112.762 32.6167 112.795 33.05C112.862 33.45 113.012 33.8833 113.245 34.35C113.479 34.8167 113.862 35.2167 114.395 35.55C114.929 35.8833 115.662 36.05 116.595 36.05C117.995 36.05 119.395 35.6667 120.795 34.9C122.229 34.1 123.562 33.05 124.795 31.75C126.062 30.45 127.112 29 127.945 27.4L128.945 28.2C128.045 30.2 126.879 31.95 125.445 33.45C124.045 34.95 122.479 36.1167 120.745 36.95C119.045 37.7833 117.295 38.2 115.495 38.2ZM113.395 29.15C114.262 29.05 115.229 28.75 116.295 28.25C117.362 27.75 118.379 27.1167 119.345 26.35C120.345 25.5833 121.162 24.75 121.795 23.85C122.429 22.9167 122.745 21.9833 122.745 21.05C122.745 20.6833 122.679 20.4333 122.545 20.3C122.412 20.1667 122.195 20.1 121.895 20.1C121.129 20.1 120.329 20.3833 119.495 20.95C118.662 21.4833 117.845 22.2 117.045 23.1C116.245 23.9667 115.529 24.9333 114.895 26C114.262 27.0667 113.762 28.1167 113.395 29.15ZM131.436 37.5C129.87 37.5 128.703 36.9833 127.936 35.95C127.203 34.9167 126.836 33.5833 126.836 31.95C126.836 30.3833 127.136 28.5167 127.736 26.35C128.336 24.1833 129.12 21.9 130.086 19.5C131.086 17.1 132.17 14.75 133.336 12.45C134.536 10.15 135.736 8.06667 136.936 6.2C138.136 4.3 139.236 2.8 140.236 1.7C141.27 0.566665 142.103 -1.43051e-06 142.736 -1.43051e-06C143.17 -1.43051e-06 143.536 0.233332 143.836 0.699998C144.136 1.13333 144.37 1.66667 144.536 2.3C144.736 2.93333 144.836 3.53333 144.836 4.1C144.836 4.96666 144.603 6.11666 144.136 7.55C143.703 8.95 143.07 10.5 142.236 12.2C141.436 13.9 140.47 15.65 139.336 17.45C138.236 19.2167 137.003 20.9167 135.636 22.55C134.303 24.15 132.87 25.55 131.336 26.75C131.203 27.5833 131.07 28.4667 130.936 29.4C130.836 30.3 130.786 31.0833 130.786 31.75C130.786 34.05 131.503 35.2 132.936 35.2C133.67 35.2 134.42 34.9 135.186 34.3C135.986 33.6667 136.753 32.85 137.486 31.85C138.22 30.8167 138.886 29.7 139.486 28.5C139.82 26.8 140.32 24.9667 140.986 23C141.653 21.0333 142.42 19.0667 143.286 17.1C144.186 15.1 145.136 13.2 146.136 11.4C147.136 9.56666 148.12 7.95 149.086 6.55C150.053 5.11666 150.936 4 151.736 3.2C152.57 2.36666 153.253 1.95 153.786 1.95C154.22 1.95 154.586 2.18333 154.886 2.65C155.22 3.08333 155.47 3.63333 155.636 4.3C155.836 4.93333 155.936 5.55 155.936 6.15C155.936 7.18333 155.653 8.55 155.086 10.25C154.52 11.9167 153.703 13.75 152.636 15.75C151.603 17.7167 150.336 19.6667 148.836 21.6C147.336 23.5333 145.636 25.25 143.736 26.75C143.57 27.5167 143.436 28.3333 143.336 29.2C143.236 30.0667 143.186 30.8333 143.186 31.5C143.186 33.9667 143.87 35.2 145.236 35.2C146.103 35.2 146.986 34.8167 147.886 34.05C148.786 33.25 149.636 32.2333 150.436 31C151.236 29.7667 151.92 28.5167 152.486 27.25L153.736 27.9C152.336 30.8667 150.803 33.2167 149.136 34.95C147.503 36.65 145.703 37.5 143.736 37.5C142.203 37.5 141.07 37 140.336 36C139.603 35 139.22 33.7 139.186 32.1C138.053 33.8 136.836 35.1167 135.536 36.05C134.27 37.0167 132.903 37.5 131.436 37.5ZM132.236 23.95C133.336 22.7833 134.386 21.5 135.386 20.1C136.42 18.6667 137.37 17.2167 138.236 15.75C139.103 14.2833 139.853 12.8667 140.486 11.5C141.153 10.1333 141.67 8.9 142.036 7.8C142.403 6.7 142.586 5.83333 142.586 5.2C142.586 5.03333 142.586 4.9 142.586 4.8C142.586 4.7 142.553 4.63333 142.486 4.6C142.253 4.6 141.836 4.98333 141.236 5.75C140.636 6.48333 139.936 7.5 139.136 8.8C138.37 10.1 137.553 11.5833 136.686 13.25C135.853 14.8833 135.036 16.6333 134.236 18.5C133.47 20.3333 132.803 22.15 132.236 23.95ZM144.536 24C145.87 22.6 147.086 21.1 148.186 19.5C149.32 17.8667 150.286 16.2667 151.086 14.7C151.92 13.1 152.553 11.65 152.986 10.35C153.453 9.01667 153.686 7.96666 153.686 7.2C153.686 7.03333 153.686 6.91667 153.686 6.85C153.686 6.75 153.67 6.66667 153.636 6.6C153.303 6.6 152.77 7.08333 152.036 8.05C151.336 9.01667 150.536 10.3333 149.636 12C148.736 13.6333 147.836 15.4833 146.936 17.55C146.036 19.6167 145.236 21.7667 144.536 24Z" fill="#FF9F45"/>
</svg>