<svg width="638" height="473" viewBox="0 0 638 473" fill="none" xmlns="http://www.w3.org/2000/svg">
<g clip-path="url(#clip0_21_4)">
<path d="M577.71 470.809H442.432V466.655C442.432 463.047 443.864 459.588 446.413 457.037C448.961 454.486 452.418 453.053 456.022 453.053H564.12C567.724 453.053 571.181 454.486 573.73 457.037C576.278 459.588 577.71 463.047 577.71 466.655V470.809Z" fill="#E6E6E6"/>
<path d="M506.905 453.882L511.019 452.224C467.975 345.293 472.122 210.39 508.508 94.6671C512.83 81.259 513.142 66.8788 509.405 53.2956C505.668 39.7125 498.045 27.519 487.474 18.2153C466.354 -0.647223 437.237 -5.24228 411.482 6.22205C386.059 17.5401 382.555 37.2544 382.555 56.8728H386.99C386.99 35.9311 391.462 19.9931 413.285 10.2779C437.423 -0.466238 464.719 3.84326 484.52 21.5277C494.449 30.2659 501.609 41.7185 505.12 54.4763C508.63 67.2341 508.337 80.7406 504.277 93.3341C467.471 210.393 463.567 346.222 506.905 453.882Z" fill="#E6E6E6"/>
<path d="M385.881 122.348C394.455 122.348 401.405 115.392 401.405 106.811C401.405 98.2309 394.455 91.275 385.881 91.275C377.308 91.275 370.358 98.2309 370.358 106.811C370.358 115.392 377.308 122.348 385.881 122.348Z" fill="#E6E6E6"/>
<path d="M361.973 133.896V104.458H366.547V133.896C367.859 134.427 368.946 135.398 369.62 136.643C370.295 137.888 370.516 139.329 370.246 140.72C369.976 142.11 369.231 143.363 368.139 144.264C367.047 145.164 365.675 145.657 364.26 145.657C362.845 145.657 361.474 145.164 360.382 144.264C359.29 143.363 358.545 142.11 358.274 140.72C358.004 139.329 358.225 137.888 358.9 136.643C359.575 135.398 360.662 134.427 361.973 133.896Z" fill="#E6E6E6"/>
<path d="M339.865 81.842C339.872 75.0749 342.562 68.5871 347.343 63.8021C352.124 59.017 358.606 56.3254 365.368 56.3177H407.504C414.268 56.3177 420.754 59.0069 425.537 63.7936C430.32 68.5803 433.007 75.0725 433.007 81.842C433.007 88.6114 430.32 95.1036 425.537 99.8903C420.754 104.677 414.268 107.366 407.504 107.366H365.368C358.606 107.359 352.124 104.667 347.343 99.8818C342.562 95.0968 339.872 88.609 339.865 81.842Z" fill="#F76E11"/>
<path d="M280.497 239.904C284.728 185.735 306.358 159.925 292.508 143.74C279.241 128.237 241.87 131.439 217.87 146.316C153.137 186.442 129.421 346.369 212.723 424.505C291.881 498.755 441.901 474.974 475.241 414.202C483.02 400.022 489.2 375.164 477.815 360.109C449.549 322.734 346.779 390.431 301.087 348.089C274.008 322.995 278.176 269.632 280.497 239.904Z" fill="#3F3D56"/>
<path d="M329.98 212.992C328.408 213.716 327.18 215.025 326.558 216.642C325.935 218.258 325.967 220.053 326.647 221.646C326.791 221.968 326.96 222.277 327.155 222.57L313.26 241.138L320.194 251.509L336.479 224.014C337.633 223.114 338.457 221.856 338.821 220.438C339.186 219.02 339.071 217.52 338.495 216.174C338.16 215.411 337.678 214.722 337.077 214.146C336.475 213.569 335.766 213.117 334.99 212.815C334.215 212.513 333.387 212.367 332.554 212.385C331.722 212.403 330.901 212.585 330.139 212.92C330.086 212.943 330.033 212.968 329.98 212.992Z" fill="#FFB6B6"/>
<path d="M329.969 245.005C330.879 245.812 328.356 246.808 325.688 245.237C324.925 244.782 324.599 244.593 324.513 244.713C324.298 245.014 325.551 247.229 325.216 252.149C325.01 255.085 320.138 260.606 314.604 265.99C307.123 273.271 298.424 280.294 298.424 280.294L295.37 277.847L263.344 252.149L257.94 244.662C258.435 241.705 259.178 238.796 260.162 235.964C261.517 232.045 263.127 228.219 264.983 224.51C265.978 222.493 266.999 220.569 267.977 218.801L285.135 237.724L299.514 253.574C299.514 253.574 303.7 246.826 306.943 244.988C307.357 244.724 307.827 244.562 308.316 244.516C311.593 244.361 311.79 242.575 307.99 238.686C304.189 234.796 308.985 238.428 312.365 237.381C315.745 236.333 312.365 237.381 313.077 234.762C313.789 232.143 323.269 226.889 323.269 226.889L323.664 227.241L330.827 233.569L332.878 235.38C332.878 235.38 330.638 241.528 330.021 242.824C329.403 244.121 329.068 244.19 329.969 245.005Z" fill="#F76E11"/>
<path d="M518.808 364.279L519.157 354.809L482.824 348.954L482.308 362.931L518.808 364.279Z" fill="#FFB6B6"/>
<path d="M512.213 367.131L511.868 351.967L518.345 352.206L528.802 338.188C529.318 337.495 530.043 336.986 530.868 336.735C531.694 336.483 532.579 336.503 533.393 336.79C534.207 337.078 534.908 337.618 535.394 338.332C535.88 339.047 536.124 339.898 536.093 340.761L535.428 358.774L528.907 361.643L535.269 363.092L535.019 369.883L512.213 367.131Z" fill="#2F2E41"/>
<path d="M314.319 367.967L429.401 370.887C429.401 370.887 479.097 373.76 490.757 366.168L503.052 364.615L503.719 346.539C503.719 346.539 496.2 346.594 491.877 344.578C487.554 342.563 490.559 340.096 486.437 342.521C482.315 344.947 482.751 345.238 479.564 344.124C476.377 343.009 330.246 320.717 330.246 320.717L314.319 367.967Z" fill="#2F2E41"/>
<path d="M465.966 360.123L472.658 353.418L450.001 324.393L440.124 334.29L465.966 360.123Z" fill="#FFB6B6"/>
<path d="M459.194 354.289L469.246 342.938L473.832 347.523L491.024 344.364C491.873 344.208 492.75 344.327 493.526 344.705C494.302 345.083 494.938 345.699 495.339 346.464C495.741 347.229 495.888 348.102 495.758 348.957C495.629 349.811 495.23 350.601 494.62 351.213L481.892 363.966L475.162 361.63L478.841 367.023L474.042 371.831L459.194 354.289Z" fill="#2F2E41"/>
<path d="M268.916 304.889L270.06 331.505C271.407 362.839 305.886 381.803 332.621 365.443C333.114 365.142 333.608 364.829 334.104 364.506C334.104 364.506 344.24 361.782 343.932 357.468C343.624 353.154 346.101 351.054 348.292 352.231C350.483 353.407 379.173 312.657 379.173 312.657C379.173 312.657 438.781 342.415 451.931 349.421C451.931 349.421 464.295 330.073 463.399 330.276C462.502 330.479 389.656 279.451 389.656 279.451C389.656 279.451 377.788 267.43 363.067 275.367C362.76 276.533 363.023 276.574 363.023 276.574L314.393 316.232L307.522 303.171L268.916 304.889Z" fill="#2F2E41"/>
<path d="M314.767 271.614C314.675 272.843 314.5 274.065 314.244 275.271C313.893 277.017 313.329 278.713 312.562 280.32C312.562 280.32 312.562 282.114 309.131 288.125C305.699 294.135 309.989 291.559 312.562 296.024C315.136 300.48 312.562 298.428 309.705 301.296C308.883 302.13 308.299 303.17 308.014 304.307C307.729 305.444 307.753 306.637 308.084 307.761C308.084 307.761 271.229 307.787 264.365 305.211C257.502 302.635 255.941 288.125 262.092 286.691C268.234 285.257 260.23 283.832 256.618 280.526C253.007 277.22 260.23 271.811 260.23 271.811C260.23 271.811 257.253 266.668 257.502 249.401C257.537 247.813 257.683 246.23 257.94 244.662C258.435 241.705 259.178 238.796 260.162 235.964C261.517 232.045 263.127 228.219 264.983 224.51C265.978 222.493 266.999 220.569 267.977 218.801C268.132 218.526 268.277 218.26 268.432 217.993C270.293 214.696 271.992 212 273.116 210.275C273.982 208.935 274.506 208.18 274.506 208.18L280.751 197.31L301.598 207.089L300.414 223.085L304.009 235.148L305.665 240.704L306.943 244.988L308.916 251.625C308.916 251.625 308.376 251.651 309.019 252.535C311.982 256.478 313.903 261.106 314.604 265.99C314.851 267.854 314.906 269.738 314.767 271.614V271.614Z" fill="#F76E11"/>
<path d="M374.971 273.337L374.58 273.211L324.683 257.13L343.07 196.76C343.436 195.558 344.07 194.454 344.924 193.533C345.778 192.612 346.83 191.897 348.001 191.441C349.171 190.986 350.429 190.803 351.681 190.905C352.933 191.007 354.145 191.393 355.226 192.032L387.112 210.886C389.636 212.377 391.556 214.708 392.537 217.472C393.518 220.236 393.497 223.257 392.479 226.007L374.971 273.337Z" fill="#2F2E41"/>
<path d="M375.174 277.175L324.875 260.965L343.262 200.595C343.628 199.393 344.262 198.289 345.116 197.368C345.97 196.447 347.022 195.732 348.193 195.276C349.363 194.821 350.622 194.638 351.873 194.74C353.125 194.842 354.337 195.227 355.418 195.867L388.826 212.56C393.845 215.527 393.728 223.206 391.398 229.507L375.174 277.175Z" fill="#F76E11"/>
<path d="M370.138 281.545C368.98 282.199 367.698 282.605 366.375 282.736C365.051 282.868 363.715 282.723 362.451 282.31L330.302 271.948C327.835 271.142 325.781 269.402 324.579 267.101C323.377 264.799 323.122 262.118 323.868 259.631L339.986 206.709C340.308 205.651 340.838 204.669 341.544 203.819C342.25 202.97 343.119 202.27 344.099 201.761C345.08 201.251 346.152 200.943 347.253 200.854C348.353 200.765 349.461 200.897 350.51 201.242L383.827 212.19C385.414 212.711 386.881 213.546 388.141 214.645C389.4 215.743 390.427 217.083 391.161 218.585C391.895 220.088 392.32 221.722 392.412 223.392C392.504 225.061 392.261 226.732 391.696 228.306L374.463 276.392C373.689 278.575 372.153 280.405 370.138 281.545Z" fill="#3F3D56"/>
<path d="M300.42 197.495C313.137 197.495 323.447 187.177 323.447 174.449C323.447 161.721 313.137 151.404 300.42 151.404C287.702 151.404 277.393 161.721 277.393 174.449C277.393 187.177 287.702 197.495 300.42 197.495Z" fill="#FFB6B6"/>
<path d="M222.554 197.842C224.667 201.942 228.132 205.184 232.361 207.018C234.048 207.787 235.823 208.349 237.645 208.692C238.161 206.647 238.985 204.693 240.091 202.898C239.723 204.921 239.723 206.994 240.091 209.018C242.868 209.245 245.662 208.898 248.299 207.998C250.888 207.117 253.237 205.643 255.159 203.695C257.081 201.746 258.522 199.377 259.369 196.773C261.204 190.665 259.228 184.14 259.072 177.764C258.912 171.387 261.937 163.76 268.263 162.971C273.08 162.369 272.484 162.836 275.945 166.242C271.104 171.625 282.907 195.465 289.241 194.412C292.821 193.816 295.456 190.971 296.165 191.07C299.791 199.958 288.882 212.565 297.534 216.703L296.892 215.853C292.364 208.365 305.764 195.718 301.236 188.23C299.973 186.135 298.66 183.68 299.441 181.362C300.183 179.159 303.937 178.462 304.73 180.467C303.442 175.871 307.037 170.477 311.811 170.008C316.053 169.589 315.808 170.799 319.853 171.903C320.37 170.159 321.114 168.491 322.068 166.943C321.745 168.71 321.705 170.516 321.95 172.295C323.409 172.47 324.884 172.157 326.147 171.406C329.882 169.165 329.993 163.381 327.427 159.861C324.857 156.34 320.552 154.601 316.398 153.286C316.36 144.495 292.724 140.286 288.377 148.46C287.93 141.842 280.35 137.384 273.821 138.508C267.291 139.632 262.14 144.872 258.999 150.713C255.859 156.549 254.3 163.084 252.002 169.3C249.703 175.516 246.417 181.715 240.912 185.403C235.409 189.086 227.229 189.421 222.634 184.647C221.586 186.685 221.032 188.942 221.018 191.235C221.004 193.527 221.53 195.791 222.554 197.842Z" fill="#2F2E41"/>
<path d="M246.181 303.23C246.658 302.848 247.174 302.521 247.723 302.253C256.536 297.862 283.945 286.467 305.376 286.934C346.612 287.834 399.091 333.381 386.877 363.966C377.584 387.24 331.381 400.481 297.655 389.891C250.408 375.055 231.758 314.739 246.181 303.23Z" fill="#3F3D56"/>
<path d="M74.9937 470.897C61.5195 468.353 49.5924 407.599 76.1026 377.678C85.1853 367.426 96.5149 362.965 111.585 358.812C198.326 334.912 264.484 357.69 273.375 363.251C282.245 368.8 297.797 452.404 277.911 464.238C266.722 470.897 244.545 474.226 233.557 466.458C217.389 455.027 244.527 425.379 232.448 405.422C218.741 382.775 146.563 375.146 110.376 397.653C71.7682 421.666 151.403 485.324 74.9937 470.897Z" fill="#F2F2F2"/>
<path d="M165.081 367.603H113.604C100.897 355.414 91.811 343.668 99.0852 333.917C99.0852 331.114 100.198 328.426 102.178 326.444C104.158 324.463 106.844 323.349 109.644 323.349H169.04C171.841 323.349 174.527 324.463 176.507 326.444C178.487 328.426 179.6 331.114 179.6 333.917C182.369 345.027 177.421 356.257 165.081 367.603Z" fill="#CCCCCC"/>
<path d="M155.836 310.045C155.347 310.068 154.864 309.939 154.451 309.677C154.038 309.416 153.715 309.033 153.526 308.582C153.338 308.13 153.292 307.632 153.396 307.154C153.5 306.675 153.749 306.241 154.108 305.909L154.271 305.259C154.249 305.207 154.228 305.154 154.206 305.103C153.714 303.939 152.89 302.948 151.836 302.252C150.783 301.556 149.547 301.188 148.285 301.192C147.023 301.197 145.791 301.575 144.743 302.278C143.694 302.982 142.877 303.98 142.394 305.146C140.462 309.803 138.002 314.468 137.397 319.392C137.13 321.568 137.242 323.775 137.729 325.913C133.192 316.006 130.835 305.239 130.82 294.341C130.819 291.607 130.971 288.874 131.275 286.157C131.526 283.929 131.874 281.717 132.32 279.52C134.752 267.604 139.974 256.435 147.556 246.93C151.226 244.926 154.194 241.845 156.06 238.1C156.736 236.754 157.214 235.318 157.479 233.835C157.065 233.889 155.918 227.579 156.23 227.192C155.653 226.315 154.62 225.88 153.99 225.025C150.857 220.773 146.539 221.515 144.285 227.294C139.47 229.726 139.424 233.759 142.378 237.638C144.258 240.106 144.516 243.446 146.165 246.088C145.995 246.305 145.819 246.516 145.649 246.733C142.548 250.725 139.844 255.011 137.578 259.53C138.129 254.468 137.472 249.346 135.659 244.587C133.822 240.152 130.379 236.417 127.347 232.583C123.705 227.977 116.237 229.987 115.595 235.825C115.589 235.882 115.583 235.938 115.577 235.995C116.027 236.249 116.468 236.519 116.9 236.804C117.441 237.167 117.861 237.684 118.104 238.29C118.347 238.895 118.402 239.559 118.261 240.196C118.12 240.833 117.79 241.412 117.314 241.858C116.839 242.304 116.24 242.596 115.595 242.695L115.53 242.706C115.69 244.33 115.974 245.94 116.378 247.521C112.488 262.576 120.886 268.06 132.877 268.306C133.141 268.442 133.399 268.578 133.664 268.707C131.387 275.165 129.959 281.891 129.415 288.717C129.108 292.745 129.126 296.79 129.47 300.815L129.449 300.672C128.58 296.197 126.195 292.159 122.696 289.24C117.5 284.968 110.158 283.395 104.551 279.96C103.955 279.578 103.263 279.373 102.555 279.372C101.847 279.37 101.153 279.571 100.555 279.951C99.9574 280.331 99.4808 280.874 99.1814 281.516C98.882 282.158 98.7723 282.873 98.8653 283.575C98.8728 283.625 98.8805 283.675 98.8882 283.725C99.724 284.066 100.538 284.458 101.325 284.9C101.775 285.154 102.216 285.424 102.647 285.71C103.189 286.072 103.609 286.59 103.852 287.195C104.095 287.8 104.149 288.465 104.008 289.102C103.867 289.738 103.537 290.318 103.062 290.764C102.586 291.21 101.987 291.501 101.343 291.601L101.277 291.611C101.23 291.618 101.189 291.625 101.141 291.631C102.569 295.044 104.574 298.185 107.066 300.916C109.498 314.059 119.945 315.306 131.119 311.479H131.126C132.352 316.811 134.128 322.001 136.426 326.965H155.361C155.429 326.755 155.49 326.537 155.551 326.327C153.799 326.437 152.039 326.332 150.312 326.014C151.717 324.289 153.122 322.55 154.527 320.825C154.558 320.793 154.587 320.759 154.615 320.723C155.327 319.84 156.047 318.964 156.759 318.081L156.76 318.08C156.798 315.373 156.487 312.673 155.836 310.046L155.836 310.045Z" fill="#CCCCCC"/>
<path d="M220.42 364.842C220.734 365.757 221.33 366.549 222.122 367.104C222.914 367.659 223.861 367.949 224.828 367.932L243.712 367.445C244.686 367.427 245.627 367.093 246.396 366.494C247.164 365.895 247.718 365.063 247.975 364.123L250.648 335.524C251.596 335.954 252.628 336.166 253.669 336.145C255.494 336.099 257.227 335.33 258.486 334.005C259.745 332.68 260.426 330.909 260.38 329.082C260.335 327.255 259.565 325.52 258.242 324.26C256.918 323.001 255.149 322.319 253.323 322.365C252.907 322.363 252.492 322.406 252.085 322.493C251.643 322.014 251.105 321.633 250.507 321.375C249.908 321.117 249.263 320.987 248.611 320.993L219.563 321.744C219.322 321.753 219.082 321.782 218.846 321.833C218.209 321.952 217.605 322.206 217.074 322.578C216.543 322.95 216.099 323.432 215.769 323.99C215.44 324.549 215.235 325.172 215.166 325.817C215.098 326.461 215.168 327.114 215.372 327.729L220.42 364.842ZM251.196 333.582L253.097 326.767C253.313 325.98 253.318 325.15 253.112 324.36C253.204 324.359 253.285 324.316 253.378 324.315C254.681 324.289 255.942 324.78 256.884 325.683C257.826 326.585 258.372 327.824 258.403 329.129C258.434 330.434 257.946 331.697 257.047 332.643C256.148 333.588 254.912 334.138 253.608 334.173C252.765 334.199 251.931 333.995 251.196 333.582Z" fill="#CCCCCC"/>
<path d="M218.846 321.833C219.465 325.374 226.423 327.864 234.789 327.431C242.482 327.076 248.773 324.373 249.925 321.168C249.499 321.042 249.055 320.983 248.611 320.993L219.562 321.744C219.322 321.753 219.082 321.782 218.846 321.833Z" fill="white"/>
<path d="M1.01134 472.238L636.989 472.499C637.257 472.499 637.514 472.392 637.704 472.202C637.893 472.013 638 471.755 638 471.487C638 471.218 637.893 470.961 637.704 470.771C637.514 470.581 637.257 470.475 636.989 470.475L1.01134 470.213C0.743115 470.213 0.485879 470.32 0.296214 470.51C0.10655 470.7 0 470.957 0 471.226C0 471.494 0.10655 471.751 0.296214 471.941C0.485879 472.131 0.743115 472.238 1.01134 472.238Z" fill="#CACACA"/>
<path d="M357.711 246.026C355.982 246.089 354.345 246.825 353.15 248.078C351.954 249.33 351.294 251 351.31 252.732C351.319 253.084 351.356 253.435 351.423 253.781L331.464 265.574L333.88 277.816L359.476 258.702C360.887 258.314 362.131 257.47 363.012 256.301C363.894 255.133 364.364 253.704 364.349 252.24C364.333 251.407 364.153 250.585 363.819 249.822C363.485 249.058 363.004 248.368 362.404 247.79C361.804 247.213 361.096 246.759 360.321 246.456C359.545 246.152 358.718 246.004 357.885 246.02C357.827 246.022 357.769 246.023 357.711 246.026Z" fill="#FFB6B6"/>
<path d="M341.361 274.141C340.827 273.425 340.597 273.125 340.476 273.208C340.163 273.396 340.464 275.926 338.266 280.334C335.171 286.527 302.724 296.011 302.724 296.011L298.729 288.692L281.158 256.525L275.101 230.742C274.889 229.843 274.786 228.922 274.794 227.998C280.195 224.195 285.929 220.891 291.928 218.128C294.325 219.488 296.152 221.667 297.075 224.266L309.171 258.209L313.998 271.761C313.998 271.761 322.512 265.668 325.601 266.786C328.684 267.912 329.56 266.334 327.545 261.282C325.529 256.23 328.555 261.43 332.075 261.761C335.603 262.096 332.075 261.761 333.741 259.617C335.408 257.474 346.18 256.267 346.18 256.267L346.409 256.746L350.584 265.34L351.779 267.81C351.779 267.81 347.353 272.616 346.286 273.573C345.213 274.538 344.881 274.471 345.407 275.571C345.925 276.665 343.215 276.615 341.361 274.141Z" fill="#F76E11"/>
</g>
<defs>
<clipPath id="clip0_21_4">
<rect width="638" height="473" fill="white"/>
</clipPath>
</defs>
</svg>
